<?xml version="1.0" standalone="no"?>
<svg xmlns:xlink="http://www.w3.org/1999/xlink" id="wave" style="transform:rotate(180deg); transition: 0.3s" viewBox="0 0 1440 100" version="1.1" xmlns="http://www.w3.org/2000/svg"><defs><linearGradient id="sw-gradient-0" x1="0" x2="0" y1="1" y2="0"><stop stop-color="rgba(255, 249, 234, 1)" offset="0%"/><stop stop-color="rgba(255, 249, 234, 1)" offset="100%"/></linearGradient></defs><path style="transform:translate(0, 0px); opacity:1" fill="url(#sw-gradient-0)" d="M0,30L26.7,35C53.3,40,107,50,160,55C213.3,60,267,60,320,56.7C373.3,53,427,47,480,36.7C533.3,27,587,13,640,13.3C693.3,13,747,27,800,30C853.3,33,907,27,960,30C1013.3,33,1067,47,1120,46.7C1173.3,47,1227,33,1280,25C1333.3,17,1387,13,1440,25C1493.3,37,1547,63,1600,63.3C1653.3,63,1707,37,1760,28.3C1813.3,20,1867,30,1920,30C1973.3,30,2027,20,2080,15C2133.3,10,2187,10,2240,16.7C2293.3,23,2347,37,2400,35C2453.3,33,2507,17,2560,11.7C2613.3,7,2667,13,2720,26.7C2773.3,40,2827,60,2880,71.7C2933.3,83,2987,87,3040,88.3C3093.3,90,3147,90,3200,78.3C3253.3,67,3307,43,3360,30C3413.3,17,3467,13,3520,15C3573.3,17,3627,23,3680,25C3733.3,27,3787,23,3813,21.7L3840,20L3840,100L3813.3,100C3786.7,100,3733,100,3680,100C3626.7,100,3573,100,3520,100C3466.7,100,3413,100,3360,100C3306.7,100,3253,100,3200,100C3146.7,100,3093,100,3040,100C2986.7,100,2933,100,2880,100C2826.7,100,2773,100,2720,100C2666.7,100,2613,100,2560,100C2506.7,100,2453,100,2400,100C2346.7,100,2293,100,2240,100C2186.7,100,2133,100,2080,100C2026.7,100,1973,100,1920,100C1866.7,100,1813,100,1760,100C1706.7,100,1653,100,1600,100C1546.7,100,1493,100,1440,100C1386.7,100,1333,100,1280,100C1226.7,100,1173,100,1120,100C1066.7,100,1013,100,960,100C906.7,100,853,100,800,100C746.7,100,693,100,640,100C586.7,100,533,100,480,100C426.7,100,373,100,320,100C266.7,100,213,100,160,100C106.7,100,53,100,27,100L0,100Z"/></svg>